<?xml version="1.0" encoding="UTF-8"?><svg id="Layer_2" xmlns="http://www.w3.org/2000/svg" xmlns:xlink="http://www.w3.org/1999/xlink" viewBox="0 0 512 512"><defs><style>.cls-1{fill:url(#linear-gradient);}.cls-1,.cls-2,.cls-3,.cls-4,.cls-5,.cls-6,.cls-7,.cls-8{stroke-width:0px;}.cls-2{filter:url(#outer-glow-1);}.cls-2,.cls-3,.cls-8{fill:#f2f2f2;}.cls-3{filter:url(#outer-glow-2);}.cls-4{fill:url(#linear-gradient-2);}.cls-5{fill:url(#linear-gradient-3);}.cls-7{fill:rgba(242,242,242,.5);}</style><linearGradient id="linear-gradient" x1="255.29" y1="1.21" x2="256.71" y2="509.15" gradientUnits="userSpaceOnUse"><stop offset=".24" stop-color="#fff"/><stop offset="1" stop-color="#d1d1d1"/></linearGradient><linearGradient id="linear-gradient-2" x1="50.28" y1="209.75" x2="446.28" y2="209.75" gradientUnits="userSpaceOnUse"><stop offset="0" stop-color="#ff4800"/><stop offset="1" stop-color="#ffd215"/></linearGradient><filter id="outer-glow-1" filterUnits="userSpaceOnUse"><feOffset dx="0" dy="0"/><feGaussianBlur result="blur" stdDeviation="10"/><feFlood flood-color="#fff" flood-opacity="1"/><feComposite in2="blur" operator="in"/><feComposite in="SourceGraphic"/></filter><filter id="outer-glow-2" filterUnits="userSpaceOnUse"><feOffset dx="0" dy="0"/><feGaussianBlur result="blur-2" stdDeviation="10"/><feFlood flood-color="#fff" flood-opacity="1"/><feComposite in2="blur-2" operator="in"/><feComposite in="SourceGraphic"/></filter><linearGradient id="linear-gradient-3" y1="342.25" y2="342.25" xlink:href="#linear-gradient-2"/></defs><g id="Layer_1-2"><g id="HIghlight"><rect class="cls-1" width="512" height="512" rx="128" ry="128"/></g><path id="Highlight" class="cls-8" d="m270,379.5c-89.38,0-162.05-49.92-163.95-112-.03.83-.05,1.66-.05,2.5,0,63.24,73.43,114.5,164,114.5s164-51.26,164-114.5c0-.84-.02-1.67-.05-2.5-1.91,62.08-74.58,112-163.95,112Z"/><path class="cls-7" d="m58,276c0-73.18,88.65-132.5,198-132.5s198,59.32,198,132.5c0,2.87-.15,5.71-.42,8.54.93-5.1,1.42-10.28,1.42-15.54,0-71.8-89.1-130-199-130S57,197.2,57,269c0,5.26.49,10.44,1.42,15.54-.27-2.82-.42-5.67-.42-8.54Z"/><path class="cls-4" d="m106,270c0-63.24,73.43-114.5,164-114.5s164,51.26,164,114.5c0,2.01-.08,4.01-.22,6h20.22c0-73.18-88.65-132.5-198-132.5S58,202.82,58,276h48.22c-.15-1.99-.22-3.99-.22-6Z"/><polygon class="cls-2" points="91.83 416 216.02 252.93 93.2 82 179.05 82 277 217 123.87 416 91.83 416"/><polygon class="cls-3" points="335 416 235 277 386.13 82 417 82 296 241 422 416 335 416"/><polygon class="cls-6" points="96 86 177 86 274 221 123.9 416 97.9 416 219 257 96 86"/><polygon class="cls-6" points="416 416 335 416 238 281 388.1 86 414.1 86 293 245 416 416"/><path class="cls-5" d="m270,384.5c-87.69,0-159.31-48.05-163.78-108.5h-48.22c0,73.18,88.65,132.5,198,132.5s198-59.32,198-132.5h-20.22c-4.47,60.45-76.08,108.5-163.78,108.5Z"/></g></svg>