<?xml version="1.0" encoding="UTF-8"?>
<svg xmlns="http://www.w3.org/2000/svg"
    xmlns:xlink="http://www.w3.org/1999/xlink" viewBox="0 -12 680 420">
    <defs>
        <style>
            .cls-1 {
                fill: url(#linear-gradient);
            }

            .cls-1,
            .cls-2,
            .cls-3,
            .cls-4,
            .cls-5,
            .cls-6,
            .cls-7 {
                stroke-width: 0px;
            }

            .cls-2 {
                filter: url(#outer-glow-1);
            }

            .cls-2,
            .cls-3,
            .cls-7 {
                fill: #f2f2f2;
            }

            .cls-3 {
                filter: url(#outer-glow-2);
            }

            .cls-4 {
                fill: url(#linear-gradient-2);
            }

            .cls-6 {
                fill: rgba(242, 242, 242, .5);
            }

            .cls-8 {
                filter: url(#outer-glow-3);
            }
        </style>
        <linearGradient id="linear-gradient" x1="-6.72" y1="158.75" x2="389.28" y2="158.75"
            gradientUnits="userSpaceOnUse">
            <stop offset="0" stop-color="#ff4800" />
            <stop offset="1" stop-color="#ffd215" />
        </linearGradient>
        <filter id="outer-glow-1" filterUnits="userSpaceOnUse">
            <feOffset dx="0" dy="0" />
            <feGaussianBlur result="blur" stdDeviation="10" />
            <feFlood flood-color="#fff" flood-opacity="1" />
            <feComposite in2="blur" operator="in" />
            <feComposite in="SourceGraphic" />
        </filter>
        <filter id="outer-glow-2" filterUnits="userSpaceOnUse">
            <feOffset dx="0" dy="0" />
            <feGaussianBlur result="blur-2" stdDeviation="10" />
            <feFlood flood-color="#fff" flood-opacity="1" />
            <feComposite in2="blur-2" operator="in" />
            <feComposite in="SourceGraphic" />
        </filter>
        <filter id="outer-glow-3" filterUnits="userSpaceOnUse">
            <feOffset dx="0" dy="0" />
            <feGaussianBlur result="blur-3" stdDeviation="10" />
            <feFlood flood-color="#fff" flood-opacity="1" />
            <feComposite in2="blur-3" operator="in" />
            <feComposite in="SourceGraphic" />
        </filter>
        <linearGradient id="linear-gradient-2" y1="291.25" y2="291.25" xlink:href="#linear-gradient" />
    </defs>
    <g>
        <path id="Highlight" class="cls-7"
            d="m213,328.5c-89.38,0-162.05-49.92-163.95-112-.03.83-.05,1.66-.05,2.5,0,63.24,73.43,114.5,164,114.5s164-51.26,164-114.5c0-.84-.02-1.67-.05-2.5-1.91,62.08-74.58,112-163.95,112Z" />
        <path class="cls-6"
            d="m1,225c0-73.18,88.65-132.5,198-132.5s198,59.32,198,132.5c0,2.87-.15,5.71-.42,8.54.93-5.1,1.42-10.28,1.42-15.54,0-71.8-89.1-130-199-130S0,146.2,0,218c0,5.26.49,10.44,1.42,15.54-.27-2.82-.42-5.67-.42-8.54Z" />
        <path class="cls-1"
            d="m49,219c0-63.24,73.43-114.5,164-114.5s164,51.26,164,114.5c0,2.01-.08,4.01-.22,6h20.22c0-73.18-88.65-132.5-198-132.5S1,151.82,1,225h48.22c-.15-1.99-.22-3.99-.22-6Z" />
        <polygon class="cls-2" points="34.83 365 159.02 201.93 36.2 31 122.05 31 220 166 66.87 365 34.83 365" />
        <polygon class="cls-3" points="278 365 178 226 329.13 31 360 31 239 190 365 365 278 365" />
        <polygon class="cls-5" points="39 35 120 35 217 170 66.9 365 40.9 365 162 206 39 35" />
        <polygon class="cls-5" points="359 365 278 365 181 230 331.1 35 357.1 35 236 194 359 365" />
        <g class="cls-8">
            <path class="cls-5"
                d="m469.86,167.94c9.15,11.93,13.72,27.19,13.72,45.78,0,20.12-5.23,36.85-15.7,50.18-12.28,15.66-29.79,23.49-52.54,23.49-21.24,0-37.94-6.85-50.09-20.55-10.84-13.21-16.26-29.91-16.26-50.09,0-18.23,4.64-33.82,13.91-46.79,11.9-16.64,29.51-24.95,52.82-24.95s42.42,7.65,54.14,22.94Zm-16.49,85.9c7.36-11.54,11.04-24.81,11.04-39.8,0-15.85-4.24-28.62-12.73-38.29-8.49-9.67-20.1-14.51-34.82-14.51s-25.94,4.79-34.96,14.37-13.53,23.7-13.53,42.37c0,14.94,3.87,27.53,11.61,37.78,7.74,10.25,20.29,15.38,37.64,15.38s28.4-5.77,35.76-17.31Z" />
            <path class="cls-5"
                d="m504.08,185.18h16.07v16.97c1.32-3.3,4.54-7.32,9.68-12.06,5.14-4.74,11.06-7.11,17.76-7.11.31,0,.85.03,1.6.09.75.06,2.04.18,3.85.37v17.43c-1-.18-1.93-.31-2.77-.37-.85-.06-1.77-.09-2.77-.09-8.52,0-15.07,2.68-19.64,8.03-4.57,5.35-6.86,11.51-6.86,18.49v56.51h-16.92v-98.26Z" />
            <path class="cls-5"
                d="m623.66,189.13c3.18,2.14,6.43,5.26,9.74,9.36v-12.39h15.6v89.36c0,12.48-1.87,22.32-5.62,29.54-7,13.33-20.2,20-39.62,20-10.8,0-19.89-2.37-27.26-7.11-7.37-4.74-11.49-12.16-12.37-22.25h17.2c.81,4.4,2.43,7.8,4.86,10.18,3.8,3.67,9.78,5.5,17.95,5.5,12.9,0,21.34-4.46,25.33-13.39,2.37-5.26,3.46-14.65,3.27-28.17-3.37,5.02-7.43,8.75-12.17,11.19-4.74,2.45-11.02,3.67-18.82,3.67-10.86,0-20.36-3.78-28.51-11.33-8.14-7.55-12.22-20.05-12.22-37.48,0-16.45,4.1-29.3,12.31-38.53,8.21-9.23,18.12-13.85,29.72-13.85,7.86,0,14.73,1.9,20.6,5.69Zm2.07,17.71c-5.11-5.87-11.63-8.81-19.54-8.81-11.84,0-19.95,5.44-24.31,16.33-2.31,5.81-3.46,13.43-3.46,22.84,0,11.07,2.29,19.5,6.87,25.28,4.58,5.78,10.74,8.67,18.47,8.67,12.09,0,20.6-5.35,25.53-16.06,2.74-6.06,4.11-13.12,4.11-21.19,0-12.17-2.56-21.19-7.67-27.06Z" />
        </g>
        <path class="cls-4"
            d="m213,333.5c-87.69,0-159.31-48.05-163.78-108.5H1c0,73.18,88.65,132.5,198,132.5s198-59.32,198-132.5h-20.22c-4.47,60.45-76.08,108.5-163.78,108.5Z" />
    </g>
</svg>