<?xml version="1.0" encoding="UTF-8"?><svg id="Layer_2" xmlns="http://www.w3.org/2000/svg" xmlns:xlink="http://www.w3.org/1999/xlink" viewBox="0 0 398 396"><defs><style>.cls-1{fill:url(#linear-gradient);}.cls-1,.cls-2,.cls-3,.cls-4,.cls-5,.cls-6,.cls-7{stroke-width:0px;}.cls-2{filter:url(#outer-glow-1);}.cls-2,.cls-3,.cls-7{fill:#f2f2f2;}.cls-3{filter:url(#outer-glow-2);}.cls-4{fill:url(#linear-gradient-2);}.cls-6{fill:rgba(242,242,242,.5);}</style><linearGradient id="linear-gradient" x1="-6.72" y1="158.75" x2="389.28" y2="158.75" gradientUnits="userSpaceOnUse"><stop offset="0" stop-color="#ff4800"/><stop offset="1" stop-color="#ffd215"/></linearGradient><filter id="outer-glow-1" filterUnits="userSpaceOnUse"><feOffset dx="0" dy="0"/><feGaussianBlur result="blur" stdDeviation="10"/><feFlood flood-color="#fff" flood-opacity="1"/><feComposite in2="blur" operator="in"/><feComposite in="SourceGraphic"/></filter><filter id="outer-glow-2" filterUnits="userSpaceOnUse"><feOffset dx="0" dy="0"/><feGaussianBlur result="blur-2" stdDeviation="10"/><feFlood flood-color="#fff" flood-opacity="1"/><feComposite in2="blur-2" operator="in"/><feComposite in="SourceGraphic"/></filter><linearGradient id="linear-gradient-2" y1="291.25" y2="291.25" xlink:href="#linear-gradient"/></defs><g id="Layer_1-2"><path id="Highlight" class="cls-7" d="m213,328.5c-89.38,0-162.05-49.92-163.95-112-.03.83-.05,1.66-.05,2.5,0,63.24,73.43,114.5,164,114.5s164-51.26,164-114.5c0-.84-.02-1.67-.05-2.5-1.91,62.08-74.58,112-163.95,112Z"/><path class="cls-6" d="m1,225c0-73.18,88.65-132.5,198-132.5s198,59.32,198,132.5c0,2.87-.15,5.71-.42,8.54.93-5.1,1.42-10.28,1.42-15.54,0-71.8-89.1-130-199-130S0,146.2,0,218c0,5.26.49,10.44,1.42,15.54-.27-2.82-.42-5.67-.42-8.54Z"/><path class="cls-1" d="m49,219c0-63.24,73.43-114.5,164-114.5s164,51.26,164,114.5c0,2.01-.08,4.01-.22,6h20.22c0-73.18-88.65-132.5-198-132.5S1,151.82,1,225h48.22c-.15-1.99-.22-3.99-.22-6Z"/><polygon class="cls-2" points="34.83 365 159.02 201.93 36.2 31 122.05 31 220 166 66.87 365 34.83 365"/><polygon class="cls-3" points="278 365 178 226 329.13 31 360 31 239 190 365 365 278 365"/><polygon class="cls-5" points="39 35 120 35 217 170 66.9 365 40.9 365 162 206 39 35"/><polygon class="cls-5" points="359 365 278 365 181 230 331.1 35 357.1 35 236 194 359 365"/><path class="cls-4" d="m213,333.5c-87.69,0-159.31-48.05-163.78-108.5H1c0,73.18,88.65,132.5,198,132.5s198-59.32,198-132.5h-20.22c-4.47,60.45-76.08,108.5-163.78,108.5Z"/></g></svg>